# xmcd CD database file
#
# Track frame offsets:
#	150
#	16080
#	25605
#	41537
#	52530
#	67042
#	80317
#	92092
#	104092
#	113917
#	126067
#	140385
#	151567
#	164280
#	176047
#
# Disc length: 2492 seconds
#
# Revision: 0
# Processed by: cddbd v1.4b42PL1 Copyright (c) Steve Scherf et al.
# Submitted via: CDex 1.40Beta8
#
DISCID=af09ba0f
DTITLE=Charley Pride - 30 Years Of Pride Disc 2
DYEAR=1997
DGENRE=Country
TTITLE0=Me And Bobbie McGee
TTITLE1=Don't Fight The Feelings Of Love
TTITLE2=You're My Jamaica
TTITLE3=Wings Of A Dove
TTITLE4=Kawliga
TTITLE5=I Ain't All Bad
TTITLE6=She's Just An Old Love Turned Memory
TTITLE7=My Eyes Can Only See As Far As You
TTITLE8=Someone Loves You Honey
TTITLE9=Let The Chips Fall
TTITLE10=Amazing Love
TTITLE11=Missing You
TTITLE12=Mountain Of Love
TTITLE13=I Wonder Could I Live There Any More
TTITLE14=Mississippi Cotton Pickin' Delta Town
EXTD=YEAR: 1997 ID3G: 2
EXTT0=
EXTT1=
EXTT2=
EXTT3=
EXTT4=
EXTT5=
EXTT6=
EXTT7=
EXTT8=
EXTT9=
EXTT10=
EXTT11=
EXTT12=
EXTT13=
EXTT14=
PLAYORDER=
